<svg width="20" height="20" viewBox="0 0 20 20" fill="none" xmlns="http://www.w3.org/2000/svg">
<path d="M10.0578 5C10.6397 5 10.8475 5.58919 10.8475 6.14075C10.8142 6.79932 10.6878 7.44893 10.4724 8.06926C10.6054 8.31075 10.7511 8.54473 10.9088 8.76953C11.1173 9.07023 11.3527 9.34997 11.6117 9.6047C12.0021 9.53756 12.397 9.50135 12.7927 9.49687C13.4632 9.49687 13.9387 9.63258 14.1708 9.88994C14.2633 10.0004 14.3138 10.142 14.3128 10.2885C14.3134 10.3575 14.3018 10.426 14.2785 10.4907C14.2126 10.6696 14.0308 10.883 13.5363 10.8834C12.7743 10.8474 12.0515 10.5223 11.5047 9.96949C11.1773 10.0285 10.822 10.1097 10.4477 10.2112C10.1099 10.3036 9.77596 10.4079 9.45508 10.5214C9.00514 11.3444 8.13311 12.7067 7.29058 12.7073C7.08711 12.7081 6.91609 12.6436 6.78058 12.5258C6.64191 12.3997 6.57854 12.2062 6.61432 12.0182C6.70514 11.5273 7.48428 10.9469 8.75284 10.4248C8.97506 10.0114 9.17501 9.58558 9.35178 9.14898C9.54776 8.66415 9.71506 8.20659 9.87883 7.70977C9.45196 6.73687 9.3335 5.74118 9.59119 5.28423C9.68962 5.11273 9.86569 5.00549 10.0578 5ZM8.46916 10.9196C7.57801 11.3318 6.99569 11.7725 6.93875 12.0827C6.93841 12.2317 7.02451 12.3195 7.13015 12.32C7.43711 12.3198 7.94275 11.7865 8.46916 10.9196ZM11.9346 9.89421C12.2693 10.1709 12.6563 10.3695 13.0702 10.4783C13.1289 10.4926 13.189 10.4999 13.2493 10.5001C13.4603 10.5001 13.6145 10.402 13.6421 10.2507C13.6883 10.0059 13.4996 9.91191 13.3335 9.8761C12.8689 9.80998 12.3975 9.81608 11.9346 9.89421ZM10.3315 8.49365C10.2409 8.75895 10.134 9.04357 10.0066 9.36035C9.91375 9.59147 9.80194 9.84049 9.68078 10.0863C9.9125 10.0106 10.138 9.94364 10.3643 9.8822C10.6509 9.80326 10.9348 9.7347 11.2087 9.67916L11.1788 9.64335C10.9854 9.43176 10.8056 9.20715 10.6405 8.97115C10.5337 8.81856 10.4319 8.66272 10.3315 8.49365ZM10.0513 5.34118C9.98765 5.34403 9.92861 5.37658 9.89088 5.43009C9.73045 5.71696 9.74063 6.39282 10.0328 7.20845C10.1736 6.74682 10.2585 6.26871 10.2855 5.78511C10.2855 5.5843 10.244 5.34179 10.0513 5.34118Z" fill="#4B4B4B"/>
<path d="M11.4682 17.7077H5.08301C4.69238 17.7077 4.375 17.3846 4.375 16.9883V3.01042C4.375 2.61409 4.69238 2.29102 5.08301 2.29102H13.2861C13.4041 2.29102 13.5116 2.33577 13.5962 2.42122L16.3273 5.16455C16.4128 5.25 16.4583 5.36067 16.4583 5.48437V11.2599C16.891 11.2778 17.3106 11.3461 17.7083 11.4676V5.48437C17.7083 5.02864 17.5317 4.6014 17.2119 4.28157L14.4824 1.53987C14.1634 1.21842 13.7386 1.04102 13.2861 1.04102H5.08301C4.00309 1.04102 3.125 1.92481 3.125 3.01042V16.9883C3.125 18.0739 4.00309 18.9577 5.08301 18.9577H12.0532C11.8043 18.5734 11.6048 18.1546 11.4682 17.7077Z" fill="#4B4B4B"/>
<path fill-rule="evenodd" clip-rule="evenodd" d="M16.25 12.5C14.1821 12.5 12.5 14.1821 12.5 16.25C12.5 18.3179 14.1821 20 16.25 20C18.3179 20 20 18.3179 20 16.25C20 14.1821 18.3179 12.5 16.25 12.5ZM18.761 16.5456L17.0594 18.2397C16.8964 18.4019 16.6326 18.4015 16.4702 18.2385L16.1763 17.9435C16.0138 17.7804 16.0144 17.5165 16.1776 17.354L16.659 16.875H14.0416C13.8115 16.875 13.625 16.6884 13.625 16.4583V16.0417C13.625 15.8116 13.8115 15.625 14.0416 15.625H16.668L16.1826 15.1374C16.0202 14.9744 16.0208 14.7105 16.1839 14.5482L16.4795 14.254C16.6426 14.0916 16.9064 14.0922 17.0687 14.2552L18.7623 15.9563C18.9247 16.1194 18.9241 16.3833 18.761 16.5456Z" fill="#4B4B4B"/>
</svg>
